<?xml version="1.0" standalone="no"?>
<!DOCTYPE svg PUBLIC "-//W3C//DTD SVG 20010904//EN"
 "http://www.w3.org/TR/2001/REC-SVG-20010904/DTD/svg10.dtd">
<svg version="1.0" xmlns="http://www.w3.org/2000/svg"
 width="266.000000pt" height="220.000000pt" viewBox="0 0 266.000000 220.000000"
 preserveAspectRatio="xMidYMid meet">

<g transform="translate(0.000000,220.000000) scale(0.100000,-0.100000)"
fill="#000000" stroke="none">
<path d="M1232 2115 c-18 -40 -15 -68 18 -137 16 -34 30 -71 30 -82 0 -10 -16
-53 -35 -96 -19 -43 -35 -85 -35 -94 0 -18 27 -76 36 -76 2 0 0 9 -6 19 -15
29 -12 52 10 91 11 19 32 59 46 88 32 65 28 91 -22 173 -31 50 -36 65 -31 99
6 47 4 49 -11 15z"/>
<path d="M1388 1967 c-12 -30 -9 -72 7 -93 20 -26 19 -64 -5 -115 -23 -52 -25
-82 -6 -98 12 -10 13 -8 9 8 -3 13 6 39 26 69 37 59 39 97 7 145 -14 20 -26
51 -28 69 -2 26 -5 29 -10 15z"/>
<path d="M1095 1820 c-4 -6 -1 -25 6 -42 10 -24 10 -37 0 -64 -7 -19 -9 -43
-6 -54 5 -17 10 -14 31 25 13 26 24 51 24 58 -1 23 -48 89 -55 77z"/>
<path d="M793 1468 c6 -89 35 -194 72 -268 35 -69 111 -165 157 -199 l42 -31
-138 0 c-149 0 -159 -5 -98 -46 121 -82 578 -99 808 -29 52 15 104 48 104 66
0 5 -59 9 -137 9 l-136 0 39 28 c89 65 177 205 211 336 16 58 21 66 41 66 37
0 88 -28 101 -56 21 -46 14 -107 -17 -150 -38 -52 -53 -63 -104 -79 -28 -9
-35 -14 -20 -14 33 -1 93 26 125 57 43 41 67 95 67 152 0 43 -5 55 -34 87 -29
32 -40 37 -82 39 l-49 2 3 56 3 56 -482 0 -482 0 6 -82z"/>
<path d="M281 1427 c-26 -13 -68 -64 -60 -72 8 -7 179 48 179 58 0 10 -46 27
-73 27 -12 0 -33 -6 -46 -13z"/>
<path d="M2344 1424 c-28 -13 -61 -60 -51 -70 2 -2 37 7 78 21 113 38 107 35
79 50 -33 19 -68 18 -106 -1z"/>
<path d="M320 1362 c-92 -33 -89 -31 -65 -49 31 -23 104 -11 132 22 22 25 31
56 16 54 -5 0 -42 -12 -83 -27z"/>
<path d="M2383 1362 c-46 -15 -83 -30 -83 -33 0 -10 50 -29 76 -29 44 0 103
44 104 78 0 16 0 16 -97 -16z"/>
<path d="M126 1301 c-6 -10 8 -23 84 -80 30 -23 56 -37 58 -31 7 20 -20 70
-50 95 -29 24 -81 34 -92 16z"/>
<path d="M2185 1301 c-3 -5 9 -20 27 -34 134 -97 142 -100 114 -33 -8 19 -30
45 -48 56 -35 21 -83 27 -93 11z"/>
<path d="M100 1254 c0 -17 13 -40 39 -65 31 -31 46 -39 75 -39 46 0 46 12 -1
46 -21 15 -55 40 -75 56 l-38 29 0 -27z"/>
<path d="M392 1253 c-54 -26 -88 -102 -63 -141 10 -16 14 -12 69 80 22 37 37
70 33 72 -4 3 -21 -2 -39 -11z"/>
<path d="M2170 1255 c0 -29 30 -74 60 -90 32 -17 90 -20 90 -6 0 5 -28 29 -62
53 -89 62 -88 61 -88 43z"/>
<path d="M2463 1255 c-43 -18 -74 -70 -71 -115 2 -19 7 -34 12 -34 11 2 101
153 95 159 -2 2 -19 -3 -36 -10z"/>
<path d="M434 1217 c-37 -56 -76 -128 -72 -132 9 -9 73 31 91 57 21 28 27 82
11 98 -6 6 -17 -3 -30 -23z"/>
<path d="M2513 1237 c-13 -16 -83 -137 -83 -143 0 -2 10 -4 21 -4 12 0 37 16
55 36 27 28 34 44 34 74 0 42 -12 58 -27 37z"/>
<path d="M1020 700 c-29 -31 -66 -103 -96 -187 -15 -43 -24 -54 -46 -58 -32
-8 -37 -25 -8 -32 15 -4 18 -11 13 -37 -6 -38 -49 -76 -85 -76 -25 0 -28 4
-28 31 0 17 10 53 21 80 12 27 19 52 16 55 -3 3 -26 8 -50 10 -40 5 -49 1 -82
-27 -20 -18 -47 -53 -59 -78 -16 -36 -32 -51 -69 -70 -84 -42 -121 -1 -99 109
15 71 85 213 119 239 52 42 76 17 49 -52 -19 -51 -20 -57 -3 -57 20 0 47 54
47 94 0 40 -28 76 -60 76 -30 0 -93 -63 -128 -127 -63 -120 -81 -246 -41 -297
28 -35 82 -36 134 0 27 18 41 22 48 15 19 -19 54 -12 87 15 17 15 32 25 33 23
2 -2 8 -16 15 -31 17 -42 57 -47 93 -12 l29 28 0 -48 c0 -46 13 -86 28 -86 4
0 7 35 8 78 1 101 16 149 52 156 108 21 115 20 87 -18 -21 -28 -19 -89 3 -109
34 -31 116 -15 151 27 18 21 8 20 -31 -4 -42 -25 -94 -26 -107 -2 -12 23 1 45
25 40 54 -12 117 74 81 110 -14 13 -22 14 -54 4 -21 -6 -66 -13 -101 -15 l-63
-3 6 25 c13 53 90 196 108 199 22 4 22 -22 2 -71 -18 -45 -18 -47 -1 -47 8 0
24 21 37 47 20 41 21 49 8 71 -8 14 -25 29 -37 33 -20 7 -29 4 -52 -21z m130
-244 c0 -15 -48 -66 -61 -66 -18 0 -8 23 22 51 35 33 39 34 39 15z m-420 -51
c-11 -19 -35 -46 -53 -61 -28 -23 -32 -25 -35 -10 -5 23 45 94 77 111 34 18
38 3 11 -40z"/>
<path d="M1755 706 c-43 -66 -135 -322 -135 -377 0 -24 4 -29 25 -29 17 0 29
9 40 31 18 33 83 109 95 109 4 0 3 -23 -1 -52 -7 -40 -5 -58 6 -75 19 -29 61
-30 90 -3 20 18 23 19 35 5 23 -28 64 -18 108 27 53 53 53 76 3 129 l-40 40
-31 -42 c-16 -23 -35 -60 -42 -81 -16 -55 -79 -101 -90 -66 -3 7 -1 35 4 63 9
59 5 76 -23 93 -18 12 -25 8 -75 -43 -30 -31 -54 -51 -54 -45 0 16 68 196 96
254 25 52 31 86 14 86 -5 0 -17 -11 -25 -24z m275 -285 c0 -24 -80 -105 -92
-93 -10 10 12 73 33 99 18 21 59 17 59 -6z"/>
<path d="M1460 702 c-35 -28 -29 -100 20 -229 56 -148 52 -198 -13 -174 -30
12 -44 30 -61 77 -15 44 -46 60 -46 24 0 -36 41 -98 76 -115 40 -19 57 -19 94
0 48 25 48 52 -4 190 -49 131 -56 183 -30 209 38 39 75 10 79 -62 3 -63 3 -62
19 -62 37 0 28 109 -11 140 -32 25 -93 26 -123 2z"/>
<path d="M1161 619 c-51 -69 -37 -82 22 -21 33 33 36 41 23 51 -12 10 -20 5
-45 -30z"/>
<path d="M2163 518 c-30 -38 -143 -374 -143 -424 0 -33 10 -54 27 -54 10 0 13
6 9 16 -10 25 23 154 60 230 33 69 118 174 142 174 41 0 -17 -124 -63 -136
-30 -7 -23 -24 9 -24 27 0 70 43 90 91 12 28 12 40 3 60 -21 40 -53 36 -103
-14 -50 -51 -54 -46 -19 23 14 27 25 54 25 60 0 14 -26 13 -37 -2z"/>
</g>
</svg>
